<svg xmlns="http://www.w3.org/2000/svg" width="255" height="53" viewBox="0 0 255 53" fill="none"><path d="M17.1907 17.3789V34.4964H8.59537C6.31574 34.4964 4.12947 33.5908 2.51753 31.9789C0.905581 30.3669 0 28.1807 0 25.901C0 23.6214 0.905581 21.4351 2.51753 19.8232C4.12947 18.2112 6.31574 17.3057 8.59537 17.3057C8.87914 17.3057 9.15832 17.3194 9.43523 17.3469H9.45353L17.1907 17.3789Z" fill="#00B8FF"></path><path d="M51.5723 26.2034C51.5723 28.483 50.6667 30.6693 49.0548 32.2812C47.4429 33.8932 45.2566 34.7988 42.977 34.7988C40.6973 34.7988 38.5111 33.8932 36.8991 32.2812C35.2872 30.6693 34.3816 28.483 34.3816 26.2034V17.5073L42.977 17.6057C44.1059 17.6057 45.2238 17.8281 46.2668 18.2602C47.3098 18.6923 48.2574 19.3257 49.0556 20.1241C49.8538 20.9225 50.4869 21.8703 50.9187 22.9134C51.3505 23.9565 51.5726 25.0744 51.5723 26.2034Z" fill="#00B8FF"></path><path d="M34.3842 8.81336V17.5094L25.7865 17.4087H25.4295L17.1912 17.3744V8.81336C17.228 6.55771 18.1499 4.40689 19.758 2.82476C21.3662 1.24263 23.5317 0.355957 25.7877 0.355957C28.0436 0.355957 30.2092 1.24263 31.8173 2.82476C33.4255 4.40689 34.3474 6.55771 34.3842 8.81336Z" fill="#001838"></path><path d="M17.1912 34.4941H25.7865C27.4802 34.4939 29.1363 34.9941 30.5467 35.9319C31.9571 36.8697 33.059 38.2033 33.714 39.7652C34.3691 41.3271 34.5481 43.0477 34.2286 44.711C33.909 46.3743 33.1053 47.9061 31.9181 49.1142C30.7309 50.3222 29.2133 51.1526 27.5559 51.501C25.8984 51.8495 24.1749 51.7005 22.6018 51.0727C21.0287 50.445 19.6762 49.3665 18.7139 47.9726C17.7517 46.5788 17.2228 44.9317 17.1935 43.2383L17.1912 34.4941Z" fill="#001838"></path><path d="M74.6038 26.1302L80.9653 35.8556L87.36 26.1302L88.7589 38.0205H94.6874L90.9238 13.5405L80.9653 27.7622L71.04 13.5405L67.2765 38.0205H73.2049L74.6038 26.1302ZM102.002 38.0205H113.759V33.391H102.002V38.0205ZM102.002 19.3358H113.759V14.7062H102.002V19.3358ZM102.002 28.0287H113.093V23.499H102.002V28.0287ZM98.272 14.7062V38.0205H103.668V14.7062H98.272ZM118.34 14.7062V38.0205H124.135V14.7062H118.34ZM126.667 38.0205C129.22 38.0205 131.43 37.5431 133.295 36.5883C135.16 35.6336 136.603 34.2902 137.624 32.5583C138.646 30.8042 139.157 28.7392 139.157 26.3634C139.157 23.9653 138.646 21.9003 137.624 20.1684C136.603 18.4365 135.16 17.0932 133.295 16.1384C131.43 15.1836 129.22 14.7062 126.667 14.7062H122.07V19.7021H126.467C127.355 19.7021 128.21 19.8132 129.031 20.0352C129.875 20.2572 130.608 20.6236 131.23 21.1343C131.874 21.645 132.384 22.3333 132.762 23.1993C133.139 24.043 133.328 25.0977 133.328 26.3634C133.328 27.629 133.139 28.6948 132.762 29.5608C132.384 30.4045 131.874 31.0817 131.23 31.5924C130.608 32.1031 129.875 32.4695 129.031 32.6915C128.21 32.9136 127.355 33.0246 126.467 33.0246H122.07V38.0205H126.667Z" fill="#00B8FF"></path><path d="M155.556 14.7062L151.826 21.4674L148.229 14.7062H141.268L148.429 26.0636L140.435 38.0205H147.396L151.793 30.2602L156.056 38.0205H163.017L155.19 26.0636L162.517 14.7062H155.556ZM164.277 19.7354H170.671V38.0205H176.3V19.7354H182.728V14.7062H164.277V19.7354ZM188.248 26.3634C188.248 24.9867 188.515 23.7766 189.048 22.733C189.603 21.6672 190.369 20.8345 191.346 20.235C192.345 19.6355 193.511 19.3358 194.843 19.3358C196.198 19.3358 197.363 19.6355 198.34 20.235C199.317 20.8345 200.072 21.6672 200.605 22.733C201.138 23.7766 201.404 24.9867 201.404 26.3634C201.404 27.74 201.127 28.9612 200.572 30.027C200.039 31.0706 199.273 31.8922 198.274 32.4917C197.297 33.0912 196.153 33.391 194.843 33.391C193.511 33.391 192.345 33.0912 191.346 32.4917C190.369 31.8922 189.603 31.0706 189.048 30.027C188.515 28.9612 188.248 27.74 188.248 26.3634ZM182.287 26.3634C182.287 28.1619 182.586 29.8161 183.186 31.326C183.808 32.8359 184.674 34.1459 185.784 35.2561C186.916 36.3663 188.248 37.2323 189.781 37.854C191.313 38.4535 193 38.7532 194.843 38.7532C196.664 38.7532 198.34 38.4535 199.872 37.854C201.404 37.2323 202.726 36.3663 203.836 35.2561C204.968 34.1459 205.834 32.8359 206.434 31.326C207.055 29.8161 207.366 28.1619 207.366 26.3634C207.366 24.5648 207.055 22.9217 206.434 21.4341C205.812 19.9464 204.935 18.6585 203.802 17.5705C202.67 16.4825 201.338 15.6499 199.806 15.0726C198.296 14.4731 196.642 14.1733 194.843 14.1733C193.067 14.1733 191.413 14.4731 189.88 15.0726C188.348 15.6499 187.016 16.4825 185.884 17.5705C184.751 18.6585 183.863 19.9464 183.219 21.4341C182.598 22.9217 182.287 24.5648 182.287 26.3634ZM216.801 27.4625L223.329 38.0205H229.924L222.63 27.4625H216.801ZM210.973 14.7062V38.0205H216.602V14.7062H210.973ZM214.503 19.469H219.066C219.821 19.469 220.465 19.5911 220.998 19.8354C221.553 20.0796 221.975 20.4349 222.264 20.9012C222.552 21.3452 222.697 21.8892 222.697 22.5332C222.697 23.1771 222.552 23.7322 222.264 24.1985C221.975 24.6425 221.553 24.9867 220.998 25.231C220.465 25.453 219.821 25.564 219.066 25.564H214.503V29.9271H219.466C221.464 29.9271 223.13 29.6052 224.462 28.9612C225.794 28.3173 226.804 27.4292 227.493 26.2968C228.181 25.1421 228.525 23.821 228.525 22.3333C228.525 20.8234 228.181 19.5023 227.493 18.3699C226.804 17.2153 225.794 16.316 224.462 15.6721C223.13 15.0282 221.464 14.7062 219.466 14.7062H214.503V19.469ZM236.268 38.0205H248.025V33.391H236.268V38.0205ZM236.268 19.3358H248.025V14.7062H236.268V19.3358ZM236.268 28.0287H247.359V23.499H236.268V28.0287ZM232.537 14.7062V38.0205H237.933V14.7062H232.537Z" fill="#001838"></path></svg>